<?xml version="1.0" encoding="utf-8"?>
<!-- Generator: Adobe Illustrator 24.0.3, SVG Export Plug-In . SVG Version: 6.00 Build 0)  -->
<svg version="1.1" id="Layer_1" xmlns="http://www.w3.org/2000/svg" xmlns:xlink="http://www.w3.org/1999/xlink" x="0px" y="0px"
	 viewBox="0 0 300 300" style="enable-background:new 0 0 300 300;" xml:space="preserve">
<style type="text/css">
	.st0{fill:#E14926;}
	.st1{fill:#FFFFFF;}
</style>
<rect x="0.43" class="st0" width="300" height="300"/>
<g>
	<path class="st1" d="M217.28,187.51l-6.05-14.76c-0.38-0.96-0.93-1.68-1.65-2.16c-0.71-0.48-1.55-0.77-2.52-0.87v-0.76h3.22
		c1.13,0,2.07,0.26,2.82,0.8c0.74,0.53,1.31,1.27,1.72,2.23l4.31,10.48l4.77-13.13h1.89l-7.37,20.25c-0.38,1.03-0.78,1.88-1.2,2.55
		c-0.41,0.67-0.85,1.2-1.32,1.57c-0.46,0.38-0.97,0.64-1.53,0.78c-0.56,0.13-1.16,0.2-1.82,0.2h-1.14v-1.14
		c0.56,0,1.09-0.05,1.59-0.16c0.5-0.11,0.96-0.31,1.38-0.6c0.41-0.29,0.8-0.69,1.15-1.21c0.36-0.52,0.69-1.18,0.99-1.98
		L217.28,187.51z M190.15,173.89c0-1.13-0.16-2.05-0.47-2.74c-0.31-0.69-1.04-1.04-2.18-1.04h-0.75v-0.76h3.4
		c0.96,0,1.69,0.13,2.18,0.4c0.49,0.27,0.84,0.64,1.05,1.11h0.18c0.48-0.47,1.13-0.91,1.96-1.3c0.83-0.39,1.82-0.59,2.95-0.59
		c0.81,0,1.6,0.09,2.36,0.29c0.77,0.18,1.46,0.54,2.07,1.06c0.6,0.52,1.09,1.22,1.45,2.1c0.36,0.88,0.54,2.01,0.54,3.37v11.35h-3.4
		v-11.35c0-0.94-0.12-1.73-0.36-2.39c-0.24-0.65-0.56-1.18-0.95-1.58c-0.39-0.41-0.83-0.7-1.32-0.87c-0.49-0.18-1-0.27-1.54-0.27
		c-0.75,0-1.45,0.2-2.09,0.6c-0.64,0.41-1.2,0.88-1.68,1.41v14.45h-3.41V173.89z M182.44,187.13l-1.32-1.7h-0.18
		c-0.38,0.48-1,0.95-1.86,1.4c-0.85,0.46-2,0.68-3.44,0.68c-0.53,0-1.11-0.08-1.74-0.25c-0.63-0.16-1.22-0.44-1.78-0.85
		c-0.55-0.4-1.02-0.94-1.4-1.62c-0.38-0.68-0.57-1.54-0.57-2.57c0-1.04,0.27-1.9,0.8-2.58c0.53-0.68,1.24-1.22,2.12-1.62
		c0.88-0.41,1.9-0.69,3.07-0.85c1.16-0.17,2.38-0.25,3.67-0.25h1.14c0-1.31-0.1-2.39-0.31-3.23c-0.2-0.85-0.48-1.5-0.83-1.97
		c-0.35-0.46-0.77-0.78-1.27-0.96c-0.49-0.17-1.01-0.26-1.56-0.26c-1.06,0-1.95,0.22-2.67,0.68c-0.72,0.45-1.22,1.3-1.5,2.54h-1.71
		c0-0.65,0.04-1.26,0.12-1.83c0.07-0.57,0.35-1.09,0.83-1.57c0.22-0.23,0.54-0.43,0.96-0.6c0.41-0.18,0.87-0.32,1.38-0.42
		c0.51-0.1,1.04-0.17,1.6-0.23c0.57-0.05,1.14-0.07,1.72-0.07c0.86,0,1.68,0.09,2.48,0.29c0.8,0.18,1.5,0.56,2.12,1.13
		c0.62,0.57,1.11,1.38,1.47,2.43c0.36,1.04,0.55,2.41,0.55,4.1v10.22H182.44z M180.93,178.43h-1.14c-1.89,0-3.37,0.35-4.45,1.04
		c-1.07,0.69-1.61,1.61-1.61,2.74c0,0.6,0.1,1.13,0.3,1.59c0.2,0.45,0.47,0.83,0.8,1.13c0.33,0.3,0.7,0.53,1.13,0.67
		c0.43,0.14,0.89,0.2,1.36,0.2c0.94,0,1.68-0.23,2.21-0.7c0.54-0.46,1.01-0.98,1.39-1.56V178.43z M151.6,173.89
		c0-1.13-0.16-2.05-0.47-2.74s-1.04-1.04-2.18-1.04h-0.76v-0.76h3.41c0.96,0,1.68,0.14,2.18,0.42c0.49,0.28,0.83,0.71,1.04,1.29H155
		c0.38-0.48,0.97-0.95,1.78-1.4c0.81-0.46,1.92-0.68,3.34-0.68c1.13,0,2.12,0.25,2.96,0.74c0.84,0.49,1.55,1.15,2.12,1.98
		c0.57,0.83,1,1.81,1.29,2.94c0.29,1.12,0.43,2.33,0.43,3.61c0,1.28-0.14,2.49-0.43,3.61c-0.29,1.12-0.73,2.1-1.32,2.94
		c-0.59,0.83-1.34,1.49-2.23,1.98c-0.9,0.49-1.96,0.74-3.2,0.74c-1.06,0-1.97-0.12-2.72-0.36c-0.76-0.24-1.43-0.5-2.01-0.78v7.95
		h-3.4V173.89z M155,184.86c0.58,0.28,1.18,0.54,1.8,0.78c0.62,0.23,1.22,0.35,1.8,0.35c0.86,0,1.58-0.2,2.18-0.6
		c0.59-0.4,1.08-0.95,1.46-1.65c0.37-0.69,0.65-1.51,0.82-2.45c0.18-0.94,0.27-1.96,0.27-3.05c0-1.09-0.08-2.1-0.25-3.05
		c-0.16-0.94-0.42-1.76-0.79-2.45c-0.37-0.7-0.82-1.25-1.36-1.65c-0.54-0.4-1.19-0.6-1.95-0.6c-0.53,0-1,0.06-1.4,0.18
		c-0.4,0.12-0.76,0.29-1.07,0.51c-0.31,0.21-0.6,0.46-0.85,0.74c-0.25,0.28-0.47,0.55-0.65,0.83V184.86z M125.31,170.86
		c0.47-0.47,1.13-0.91,1.96-1.3c0.83-0.39,1.82-0.59,2.95-0.59c0.96,0,1.83,0.18,2.63,0.53c0.79,0.36,1.43,1.07,1.91,2.12
		c0.65-0.86,1.5-1.51,2.54-1.96c1.03-0.46,2.08-0.68,3.14-0.68c0.7,0,1.38,0.09,2.02,0.29c0.64,0.18,1.2,0.54,1.68,1.06
		c0.48,0.52,0.87,1.22,1.16,2.1c0.29,0.88,0.43,2.01,0.43,3.37v11.35h-3.41v-11.35c0-1.89-0.26-3.22-0.8-3.97
		c-0.53-0.76-1.27-1.14-2.23-1.14c-0.38,0-0.76,0.08-1.16,0.23c-0.39,0.15-0.76,0.34-1.11,0.58c-0.35,0.24-0.68,0.51-0.98,0.8
		c-0.3,0.29-0.54,0.57-0.72,0.85c0.1,0.27,0.16,0.68,0.18,1.24c0.01,0.55,0.02,1.02,0.02,1.41v11.35h-3.41v-11.35
		c0-1.89-0.26-3.22-0.79-3.97c-0.53-0.76-1.28-1.14-2.23-1.14c-0.75,0-1.45,0.2-2.1,0.6c-0.64,0.41-1.2,0.88-1.68,1.41v14.45h-3.41
		v-13.25c0-1.13-0.16-2.05-0.47-2.74c-0.31-0.69-1.04-1.04-2.18-1.04h-0.76v-0.76h3.41c0.96,0,1.68,0.13,2.18,0.4
		c0.49,0.27,0.84,0.64,1.04,1.11H125.31z M100.25,178.24c0-1.28,0.18-2.49,0.56-3.61c0.36-1.12,0.9-2.1,1.62-2.94
		c0.72-0.83,1.59-1.49,2.61-1.98c1.03-0.49,2.21-0.74,3.54-0.74c1.31,0,2.48,0.25,3.52,0.74c1.03,0.49,1.91,1.15,2.63,1.98
		c0.71,0.83,1.26,1.81,1.63,2.94c0.36,1.12,0.55,2.33,0.55,3.61c0,1.28-0.18,2.49-0.55,3.61c-0.37,1.12-0.91,2.1-1.63,2.94
		c-0.72,0.83-1.6,1.49-2.63,1.98c-1.04,0.49-2.21,0.74-3.52,0.74c-1.33,0-2.51-0.25-3.54-0.74c-1.02-0.49-1.89-1.15-2.61-1.98
		c-0.71-0.83-1.26-1.81-1.62-2.94C100.44,180.73,100.25,179.52,100.25,178.24 M113.31,178.24c0-1.09-0.11-2.1-0.34-3.05
		c-0.23-0.94-0.55-1.76-0.96-2.45c-0.42-0.7-0.92-1.25-1.5-1.65c-0.58-0.4-1.22-0.6-1.93-0.6c-0.7,0-1.34,0.2-1.93,0.6
		c-0.58,0.4-1.08,0.95-1.5,1.65c-0.41,0.69-0.73,1.51-0.96,2.45c-0.23,0.94-0.34,1.96-0.34,3.05c0,1.08,0.11,2.1,0.34,3.05
		c0.23,0.94,0.55,1.76,0.96,2.45c0.42,0.7,0.92,1.25,1.5,1.65c0.58,0.4,1.22,0.6,1.93,0.6c0.7,0,1.35-0.2,1.93-0.6
		c0.58-0.4,1.08-0.95,1.5-1.65c0.41-0.69,0.73-1.51,0.96-2.45C113.2,180.34,113.31,179.33,113.31,178.24 M95.68,170.11
		c-0.48-2.48-1.37-4.29-2.67-5.45c-1.29-1.16-2.99-1.74-5.08-1.74c-1.24,0-2.41,0.2-3.5,0.62c-1.1,0.41-2.06,1.1-2.9,2.05
		c-0.83,0.94-1.49,2.19-1.96,3.72c-0.48,1.54-0.72,3.44-0.72,5.71c0,1.41,0.17,2.8,0.51,4.16c0.34,1.36,0.88,2.57,1.61,3.63
		c0.73,1.06,1.67,1.92,2.82,2.57c1.15,0.65,2.53,0.98,4.15,0.98c1.89,0,3.52-0.45,4.88-1.36c1.36-0.91,2.57-2.22,3.63-3.94
		l0.75,0.57c-0.6,1.18-1.28,2.17-2.02,2.96c-0.75,0.8-1.55,1.44-2.4,1.93c-0.86,0.49-1.79,0.83-2.79,1.04
		c-0.99,0.2-2.06,0.3-3.19,0.3c-1.79,0-3.41-0.34-4.87-1.01c-1.45-0.67-2.68-1.58-3.7-2.74c-1.02-1.16-1.81-2.52-2.34-4.09
		c-0.54-1.56-0.81-3.24-0.81-5.03c0-1.89,0.31-3.67,0.92-5.31c0.62-1.66,1.45-3.1,2.51-4.34c1.06-1.23,2.31-2.2,3.73-2.91
		c1.43-0.71,2.95-1.06,4.56-1.06c2.09,0,3.9,0.29,5.41,0.89c1.51,0.59,2.61,1.3,3.3,2.14c0.47,0.58,0.75,1.39,0.83,2.42
		c0.07,1.04,0.11,2.12,0.11,3.26H95.68z"/>
	<path class="st1" d="M169.7,209.72v-1.22c0-0.09-0.09-0.18-0.19-0.18h-0.93c-0.09,0-0.18,0.09-0.18,0.18v7.93
		c0,0.09,0.09,0.17,0.18,0.17h1.01c0.09,0,0.17-0.07,0.17-0.17v-3.64c0-0.73,0.13-1.52,0.47-2.18c0.46-0.84,1.21-1.26,2.16-1.26
		c0.76,0,1.27,0.19,1.63,0.53c0.5,0.46,0.68,1.19,0.68,2.11v4.45c0,0.09,0.08,0.17,0.18,0.17h0.97c0.09,0,0.18-0.07,0.18-0.17v-4.74
		c0-1.28-0.35-2.19-0.99-2.77c-0.58-0.51-1.41-0.75-2.4-0.75c-1.22,0-2.32,0.48-2.89,1.55H169.7z M162.52,215.72
		c-1.03,0-2.09-0.42-2.09-1.45c0-0.73,0.6-1.14,1.39-1.33c0.84-0.24,1.87-0.3,2.73-0.33v2.58
		C163.91,215.51,163.21,215.72,162.52,215.72 M162.62,209.25c0.55,0,1.14,0.13,1.51,0.55c0.29,0.35,0.42,0.79,0.42,1.53v0.27
		c-1.1,0.05-2.59,0.17-3.7,0.58c-1.01,0.39-1.7,1.03-1.7,2.17c0,0.84,0.38,1.44,0.93,1.84c0.56,0.41,1.3,0.59,2.05,0.59
		c0.92,0,1.65-0.15,2.49-0.64h0.07v0.29c0,0.09,0.07,0.17,0.17,0.17h0.86c0.09,0,0.16-0.07,0.16-0.17v-5.12
		c0-1.06-0.25-1.76-0.67-2.24c-0.66-0.75-1.63-0.9-2.42-0.9c-1.13,0-2.31,0.29-3.15,0.86c-0.13,0.07-0.15,0.13-0.09,0.24l0.31,0.67
		c0.04,0.09,0.13,0.13,0.26,0.06C160.81,209.6,161.58,209.25,162.62,209.25 M153.37,215.64c-0.82,0-1.41-0.3-1.83-0.82
		c-0.47-0.58-0.69-1.44-0.69-2.38c0-0.88,0.22-1.72,0.71-2.33c0.41-0.51,1.03-0.84,1.83-0.84c1.15,0,1.85,0.56,2.32,0.95v4.54
		C155.1,215.3,154.35,215.64,153.37,215.64 M153.17,219.76c-0.99,0-1.8-0.33-2.47-0.79c-0.13-0.09-0.22-0.05-0.27,0.04l-0.37,0.73
		c-0.05,0.09-0.02,0.17,0.07,0.22c0.73,0.49,1.83,0.88,3.02,0.88c1.25,0,2.21-0.31,2.86-0.95c0.71-0.69,1.04-1.72,1.04-3.04v-8.36
		c0-0.09-0.07-0.18-0.17-0.18h-0.95c-0.09,0-0.17,0.09-0.17,0.18v0.53h-0.05c-0.53-0.41-1.26-0.86-2.47-0.86
		c-1.17,0-2.07,0.44-2.7,1.14c-0.71,0.82-1.04,1.98-1.04,3.15c0,1.23,0.36,2.36,1.07,3.17c0.63,0.69,1.51,1.14,2.68,1.14
		c0.94,0,1.72-0.2,2.47-0.82V217c0,0.89-0.2,1.57-0.62,2.05C154.69,219.5,154.05,219.76,153.17,219.76 M139.11,212.47
		c0,1.25,0.45,2.31,1.22,3.06c0.79,0.79,1.91,1.25,3.15,1.25c1.25,0,2.36-0.46,3.15-1.25c0.77-0.75,1.23-1.81,1.23-3.06
		c0-1.24-0.46-2.31-1.23-3.06c-0.79-0.79-1.9-1.25-3.15-1.25c-1.24,0-2.36,0.46-3.15,1.25
		C139.57,210.17,139.11,211.23,139.11,212.47 M140.43,212.47c0-0.88,0.3-1.67,0.82-2.23c0.53-0.6,1.32-0.97,2.23-0.97
		s1.7,0.37,2.23,0.97c0.54,0.56,0.82,1.35,0.82,2.23c0,0.88-0.29,1.67-0.82,2.23c-0.53,0.61-1.31,0.97-2.23,0.97
		s-1.7-0.36-2.23-0.97C140.72,214.14,140.43,213.35,140.43,212.47 M135.63,204.3v12.12c0,0.09,0.09,0.17,0.18,0.17h0.98
		c0.09,0,0.17-0.07,0.17-0.17V204.3c0-0.09-0.07-0.18-0.17-0.18h-0.98C135.72,204.12,135.63,204.21,135.63,204.3 M129.16,216.78
		c1.26,0,2.36-0.31,3.13-0.92c0.82-0.64,1.31-1.57,1.31-2.79c0-1.35-0.77-2.19-1.63-2.69c-1.15-0.68-2.44-0.84-3.68-1.3
		c-1.1-0.4-1.81-0.92-1.81-1.83c0-0.57,0.2-1.03,0.58-1.38c0.46-0.42,1.21-0.66,2.24-0.66c1.04,0,2.16,0.33,3.08,0.86
		c0.11,0.07,0.2,0.04,0.25-0.07l0.44-0.92c0.05-0.11,0.04-0.18-0.07-0.25c-0.84-0.48-2.12-0.88-3.62-0.88
		c-1.49,0-2.6,0.34-3.35,0.94c-0.71,0.59-1.08,1.42-1.08,2.4c0,1.4,0.79,2.19,1.87,2.71c1.3,0.64,2.53,0.81,3.6,1.29
		c0.92,0.38,1.59,0.94,1.59,1.9c0,0.71-0.27,1.34-0.82,1.76c-0.47,0.35-1.17,0.57-2.05,0.57c-1.67,0-2.81-0.69-3.58-1.19
		c-0.13-0.07-0.2-0.04-0.23,0.05l-0.46,0.94c-0.05,0.1-0.02,0.19,0.09,0.25C125.85,216.16,127.22,216.78,129.16,216.78"/>
	<path class="st1" d="M159.92,139.47c0,0.54-0.44,0.97-0.97,0.97H141.9c-0.53,0-0.97-0.44-0.97-0.97c0-0.53,0.43-0.97,0.97-0.97
		h17.05C159.49,138.5,159.92,138.94,159.92,139.47 M159.92,134.74c0,0.54-0.44,0.97-0.97,0.97H141.9c-0.53,0-0.97-0.43-0.97-0.97
		s0.43-0.97,0.97-0.97h17.05C159.49,133.77,159.92,134.2,159.92,134.74 M159.92,130.01c0,0.54-0.44,0.97-0.97,0.97H141.9
		c-0.53,0-0.97-0.43-0.97-0.97c0-0.53,0.43-0.97,0.97-0.97h17.05C159.49,129.04,159.92,129.48,159.92,130.01 M155.8,98.99
		c0,0.54-0.43,0.97-0.97,0.97h-8.81c-0.54,0-0.97-0.43-0.97-0.97c0-0.53,0.43-0.97,0.97-0.97h8.81
		C155.36,98.02,155.8,98.46,155.8,98.99 M155.8,117.91c0,0.54-0.43,0.97-0.97,0.97h-8.81c-0.54,0-0.97-0.43-0.97-0.97
		s0.43-0.97,0.97-0.97h8.81C155.36,116.94,155.8,117.37,155.8,117.91 M155.8,113.18c0,0.53-0.43,0.97-0.97,0.97h-8.81
		c-0.54,0-0.97-0.44-0.97-0.97c0-0.54,0.43-0.97,0.97-0.97h8.81C155.36,112.21,155.8,112.64,155.8,113.18 M155.8,108.45
		c0,0.53-0.43,0.97-0.97,0.97h-8.81c-0.54,0-0.97-0.43-0.97-0.97c0-0.54,0.43-0.97,0.97-0.97h8.81
		C155.36,107.48,155.8,107.91,155.8,108.45 M155.8,103.72c0,0.54-0.43,0.97-0.97,0.97h-8.81c-0.54,0-0.97-0.43-0.97-0.97
		s0.43-0.97,0.97-0.97h8.81C155.36,102.75,155.8,103.18,155.8,103.72 M139.18,143.36v-17.24h1.95h18.59h1.95v17.24H139.18z
		 M143.07,94.65h14.71v27.59h-14.71V94.65z M175.22,143.36h-9.67v-19.18c0-1.07-0.87-1.94-1.94-1.94h-1.95V92.72
		c0-1.07-1.05-1.67-2.12-1.67h-7.59V80.13c0-0.53-0.43-0.97-0.97-0.97c-0.54,0-0.97,0.44-0.97,0.97v10.91h-1.86v-4.85
		c0-0.54-0.43-0.97-0.97-0.97s-0.97,0.43-0.97,0.97v4.85h-4.9c-1.07,0-2.12,0.6-2.12,1.67v29.53h-1.95c-1.07,0-1.94,0.87-1.94,1.94
		v19.18h-9.67c-1.07,0-1.94,0.87-1.94,1.94c0,1.07,0.87,1.94,1.94,1.94h11.61h26.38h11.61c1.07,0,1.94-0.87,1.94-1.94
		C177.17,144.23,176.3,143.36,175.22,143.36"/>
</g>
</svg>
